<svg xmlns="http://www.w3.org/2000/svg" width="1200" height="675" viewBox="0 0 1200 675">
  <defs>
    <linearGradient id="bg" x1="0" y1="0" x2="1" y2="1">
      <stop offset="0" stop-color="#0b1220"/>
      <stop offset="1" stop-color="#121a2b"/>
    </linearGradient>
    <linearGradient id="card" x1="0" y1="0" x2="1" y2="1">
      <stop offset="0" stop-color="#1a2440"/>
      <stop offset="1" stop-color="#15203a"/>
    </linearGradient>
    <style>
      .title{font:700 22px -apple-system,BlinkMacSystemFont,Segoe UI,Inter,Roboto,Arial,sans-serif;fill:#e7eefc}
      .h2{font:600 16px -apple-system,BlinkMacSystemFont,Segoe UI,Inter,Roboto,Arial,sans-serif;fill:#cfe0ff}
      .label{font:600 12px -apple-system,BlinkMacSystemFont,Segoe UI,Inter,Roboto,Arial,sans-serif;fill:#b5c7ee;letter-spacing:.2px}
      .small{font:500 12px -apple-system,BlinkMacSystemFont,Segoe UI,Inter,Roboto,Arial,sans-serif;fill:#9fb3df}
      .mono{font:600 12px ui-monospace,SFMono-Regular,Menlo,Monaco,Consolas,monospace;fill:#cfe0ff}
      .pill{font:800 11px -apple-system,BlinkMacSystemFont,Segoe UI,Inter,Roboto,Arial,sans-serif;fill:#0b1220}
      .big{font:800 28px -apple-system,BlinkMacSystemFont,Segoe UI,Inter,Roboto,Arial,sans-serif;fill:#ffffff}
    </style>
  </defs>
  <rect x="0" y="0" width="1200" height="675" fill="url(#bg)"/>
  <rect x="0" y="0" width="1200" height="56" fill="#0f172a" opacity="0.95"/>
  <text x="28" y="36" class="title">Firewall Rule Review</text>
  <rect x="0" y="56" width="220" height="619" fill="#0b1326"/>
  <text x="34" y="114" class="small">Dashboard</text>
  <text x="34" y="146" class="small">Uploads</text>
  <text x="34" y="178" class="small">Normalized Rules</text>
  <text x="34" y="210" class="small">Compliance Dashboard</text>
  <rect x="20" y="232" width="180" height="34" rx="10" fill="#111a33"/>
  <text x="34" y="254" class="label">Review Results</text>
  <text x="250" y="98" class="h2">Review Results</text>
  <rect x="248" y="116" width="924" height="2" fill="#1c2a4d"/>
  <rect x="250" y="146" width="924" height="110" rx="14" fill="url(#card)" stroke="#25335a"/>
  <text x="274" y="176" class="label">Profile</text>
  <rect x="274" y="188" width="280" height="36" rx="10" fill="#0b1326" stroke="#24335a"/>
  <text x="292" y="211" class="small">PCI baseline</text>
  <text x="580" y="176" class="label">Source</text>
  <rect x="580" y="188" width="280" height="36" rx="10" fill="#0b1326" stroke="#24335a"/>
  <text x="598" y="211" class="small">asa-prod.conf</text>
  <text x="890" y="176" class="label">Run</text>
  <rect x="890" y="188" width="262" height="36" rx="10" fill="#0b1326" stroke="#24335a"/>
  <text x="908" y="211" class="small">2026-03-30 13:05</text>
  <rect x="250" y="274" width="440" height="160" rx="14" fill="url(#card)" stroke="#25335a"/>
  <text x="274" y="304" class="label">Summary</text>
  <text x="274" y="350" class="big">43</text>
  <text x="328" y="352" class="small">findings</text>
  <rect x="274" y="368" width="160" height="10" rx="5" fill="#0b1326" stroke="#24335a"/>
  <rect x="274" y="368" width="94" height="10" rx="5" fill="#ef4444"/>
  <text x="274" y="410" class="small">High: 12   Medium: 21   Low: 10</text>
  <rect x="710" y="274" width="464" height="160" rx="14" fill="url(#card)" stroke="#25335a"/>
  <text x="734" y="304" class="label">Top Categories</text>
  <rect x="734" y="324" width="416" height="14" rx="7" fill="#0b1326" stroke="#24335a"/>
  <rect x="734" y="324" width="280" height="14" rx="7" fill="#ef4444"/>
  <text x="734" y="356" class="small">Any-to-any allowed</text>
  <rect x="734" y="376" width="416" height="14" rx="7" fill="#0b1326" stroke="#24335a"/>
  <rect x="734" y="376" width="220" height="14" rx="7" fill="#f59e0b"/>
  <text x="734" y="408" class="small">Admin ports exposed</text>
  <rect x="250" y="452" width="924" height="198" rx="14" fill="url(#card)" stroke="#25335a"/>
  <text x="274" y="482" class="label">Findings</text>
  <rect x="274" y="500" width="876" height="1" fill="#2a3a66"/>
  <rect x="274" y="516" width="876" height="44" rx="12" fill="#0b1326" stroke="#24335a"/>
  <rect x="286" y="528" width="70" height="20" rx="10" fill="#ef4444"/>
  <text x="306" y="542" class="pill">HIGH</text>
  <text x="370" y="544" class="small">Rule allows any-to-any traffic</text>
  <text x="820" y="544" class="mono">SRC:any  DST:any  SVC:any</text>
  <rect x="274" y="570" width="876" height="44" rx="12" fill="#0b1326" stroke="#24335a"/>
  <rect x="286" y="582" width="86" height="20" rx="10" fill="#f59e0b"/>
  <text x="306" y="596" class="pill">MEDIUM</text>
  <text x="386" y="596" class="small">SSH exposed to broad subnets</text>
  <text x="828" y="596" class="mono">SRC:10.0.0.0/8  DST:172.16.30.5</text>
</svg>
