<svg xmlns="http://www.w3.org/2000/svg" width="1200" height="675" viewBox="0 0 1200 675">
  <defs>
    <linearGradient id="bg" x1="0" y1="0" x2="1" y2="1">
      <stop offset="0" stop-color="#0b1220"/>
      <stop offset="1" stop-color="#121a2b"/>
    </linearGradient>
    <linearGradient id="card" x1="0" y1="0" x2="1" y2="1">
      <stop offset="0" stop-color="#1a2440"/>
      <stop offset="1" stop-color="#15203a"/>
    </linearGradient>
    <style>
      .title{font:700 22px -apple-system,BlinkMacSystemFont,Segoe UI,Inter,Roboto,Arial,sans-serif;fill:#e7eefc}
      .h2{font:600 16px -apple-system,BlinkMacSystemFont,Segoe UI,Inter,Roboto,Arial,sans-serif;fill:#cfe0ff}
      .label{font:600 12px -apple-system,BlinkMacSystemFont,Segoe UI,Inter,Roboto,Arial,sans-serif;fill:#b5c7ee;letter-spacing:.2px}
      .small{font:500 12px -apple-system,BlinkMacSystemFont,Segoe UI,Inter,Roboto,Arial,sans-serif;fill:#9fb3df}
      .btn{font:700 12px -apple-system,BlinkMacSystemFont,Segoe UI,Inter,Roboto,Arial,sans-serif;fill:#0b1220}
    </style>
  </defs>
  <rect x="0" y="0" width="1200" height="675" fill="url(#bg)"/>
  <rect x="0" y="0" width="1200" height="56" fill="#0f172a" opacity="0.95"/>
  <text x="28" y="36" class="title">Firewall Rule Review</text>
  <rect x="0" y="56" width="220" height="619" fill="#0b1326"/>
  <text x="34" y="114" class="small">Dashboard</text>
  <rect x="20" y="136" width="180" height="34" rx="10" fill="#111a33"/>
  <text x="34" y="158" class="label">Uploads</text>
  <text x="34" y="202" class="small">Rules</text>
  <text x="34" y="234" class="small">Normalized Rules</text>
  <text x="34" y="266" class="small">CMDB</text>
  <text x="34" y="298" class="small">VLANs</text>
  <text x="250" y="98" class="h2">Uploads</text>
  <rect x="248" y="116" width="924" height="2" fill="#1c2a4d"/>
  <rect x="250" y="146" width="924" height="140" rx="14" fill="url(#card)" stroke="#25335a"/>
  <text x="274" y="176" class="label">Upload Type</text>
  <rect x="274" y="190" width="260" height="36" rx="10" fill="#0b1326" stroke="#24335a"/>
  <text x="292" y="213" class="small">Firewall Config (ASA / Palo Alto / Check Point)</text>
  <text x="274" y="250" class="label">Target Dataset</text>
  <rect x="274" y="262" width="260" height="36" rx="10" fill="#0b1326" stroke="#24335a"/>
  <text x="292" y="285" class="small">Rules</text>
  <rect x="560" y="170" width="590" height="96" rx="14" fill="#0b1326" stroke="#24335a"/>
  <text x="592" y="202" class="label">Drop files here</text>
  <text x="592" y="226" class="small">or click to browse (max 16MB)</text>
  <rect x="560" y="238" width="156" height="34" rx="10" fill="#22c55e"/>
  <text x="590" y="260" class="btn">Choose File</text>
  <rect x="726" y="238" width="142" height="34" rx="10" fill="#60a5fa"/>
  <text x="760" y="260" class="btn">Upload</text>
  <rect x="250" y="308" width="924" height="342" rx="14" fill="url(#card)" stroke="#25335a"/>
  <text x="274" y="338" class="label">Recent Uploads</text>
  <rect x="274" y="356" width="876" height="1" fill="#2a3a66"/>
  <rect x="274" y="372" width="876" height="40" rx="10" fill="#0b1326" stroke="#24335a"/>
  <text x="294" y="397" class="small">asa-prod.conf</text>
  <text x="560" y="397" class="small">Firewall</text>
  <text x="700" y="397" class="small">Parsed</text>
  <text x="1020" y="397" class="small">Today</text>
  <rect x="274" y="424" width="876" height="40" rx="10" fill="#0b1326" stroke="#24335a"/>
  <text x="294" y="449" class="small">cmdb.csv</text>
  <text x="560" y="449" class="small">CMDB</text>
  <text x="700" y="449" class="small">Imported</text>
  <text x="1020" y="449" class="small">Today</text>
  <rect x="274" y="476" width="876" height="40" rx="10" fill="#0b1326" stroke="#24335a"/>
  <text x="294" y="501" class="small">vlans.xlsx</text>
  <text x="560" y="501" class="small">VLAN</text>
  <text x="700" y="501" class="small">Imported</text>
  <text x="1020" y="501" class="small">Today</text>
  <rect x="274" y="528" width="876" height="40" rx="10" fill="#0b1326" stroke="#24335a"/>
  <text x="294" y="553" class="small">checkpoint.txt</text>
  <text x="560" y="553" class="small">Firewall</text>
  <text x="700" y="553" class="small">Queued</text>
  <text x="1020" y="553" class="small">Today</text>
  <rect x="274" y="588" width="876" height="44" rx="12" fill="#0b1326" stroke="#24335a"/>
  <text x="294" y="616" class="small">Tip: upload CMDB + VLANs before running compliance for richer context.</text>
</svg>
